<svg width="91" height="91" viewBox="0 0 91 91" fill="none" xmlns="http://www.w3.org/2000/svg">
<rect width="91" height="91" rx="2" fill="#FFD600"/>
<path d="M41.75 41.4375C41.75 40.1261 40.7984 39.0625 39.625 39.0625H38.5625C36.215 39.0625 34.3125 41.1889 34.3125 43.8125V47.375C34.3125 49.9986 36.215 52.125 38.5625 52.125H39.625C40.7984 52.125 41.75 51.0614 41.75 49.75V41.4375ZM53.4375 52.125C55.785 52.125 57.6875 49.9986 57.6875 47.375V43.8125C57.6875 41.1889 55.785 39.0625 53.4375 39.0625H52.375C51.2016 39.0625 50.25 40.1261 50.25 41.4375V49.75C50.25 51.0614 51.2016 52.125 52.375 52.125H53.4375ZM46 26C36.5159 26 29.3041 34.8194 29 45V46.1875C29 46.8436 29.4755 47.375 30.0625 47.375H31.125C31.712 47.375 32.1875 46.8436 32.1875 46.1875V45C32.1875 36.4879 38.3839 29.5625 46 29.5625C53.6161 29.5625 59.8125 36.4879 59.8125 45H59.8045C59.8098 45.1804 59.8125 57.2995 59.8125 57.2995C59.8125 59.0325 58.5554 60.4375 57.0048 60.4375H50.25C50.25 58.47 48.8229 56.875 47.0625 56.875H44.9375C43.1771 56.875 41.75 58.47 41.75 60.4375C41.75 62.405 43.1771 64 44.9375 64H57.0048C60.3159 64 63 61.0001 63 57.2995V45C62.6959 34.8194 55.4841 26 46 26Z" fill="black"/>
</svg>
