<svg width="91" height="91" viewBox="0 0 91 91" fill="none" xmlns="http://www.w3.org/2000/svg">
<rect width="91" height="91" rx="2" fill="#FFD600"/>
<path d="M29 55.7061V58.625C29 61.0381 34.543 63 41.375 63C48.207 63 53.75 61.0381 53.75 58.625V55.7061C51.0881 57.6953 46.2219 58.625 41.375 58.625C36.5281 58.625 31.6619 57.6953 29 55.7061ZM49.625 36.75C56.457 36.75 62 34.7881 62 32.375C62 29.9619 56.457 28 49.625 28C42.793 28 37.25 29.9619 37.25 32.375C37.25 34.7881 42.793 36.75 49.625 36.75ZM29 48.5352V52.0625C29 54.4756 34.543 56.4375 41.375 56.4375C48.207 56.4375 53.75 54.4756 53.75 52.0625V48.5352C51.0881 50.8594 46.2154 52.0625 41.375 52.0625C36.5346 52.0625 31.6619 50.8594 29 48.5352ZM55.8125 49.2871C59.5057 48.5283 62 47.1201 62 45.5V42.5811C60.5047 43.7021 58.3068 44.4678 55.8125 44.9395V49.2871ZM41.375 38.9375C34.543 38.9375 29 41.3848 29 44.4062C29 47.4277 34.543 49.875 41.375 49.875C48.207 49.875 53.75 47.4277 53.75 44.4062C53.75 41.3848 48.207 38.9375 41.375 38.9375ZM55.5096 42.7861C59.3768 42.0479 62 40.5986 62 38.9375V36.0186C59.7119 37.7344 55.7803 38.6572 51.6424 38.876C53.5437 39.8535 54.9424 41.166 55.5096 42.7861Z" fill="black"/>
</svg>
